<svg {{ with .class }}class="{{ . }}" {{ end }}{{ with .style }}style="{{ . | safeCSS }}" {{ end }}viewBox="{{ with .viewbox }}{{ . }}{{ else }}0 0 32 32{{ end }}" version="1.1" xmlns="http://www.w3.org/2000/svg" xmlns:xlink="http://www.w3.org/1999/xlink"><path fill="#eceff1" d="M0 0h32v32H0z"/><path fill="#455a64" d="M29.305 24.407c-.795-.63-1.765-1.08-2.816-1.3L21.476 22.1a1.13 1.13 0 0 1-.905-1.12v-1.15c.322-.453.626-1.054.944-1.682.247-.487.62-1.22.805-1.4 1.015-1.02 1.995-2.165 2.3-3.64.283-1.385.005-2.112-.322-2.697 0-1.46-.046-3.29-.39-4.62-.04-1.8-.368-2.814-1.19-3.7-.58-.63-1.435-.775-2.123-.89-.27-.046-.642-.1-.78-.183C18.594.347 17.4.025 15.952 0c-3 .123-6.71 2.04-7.95 5.454-.384 1.04-.345 2.747-.313 4.12l-.03.825c-.295.576-.585 1.307-.3 2.697.302 1.48 1.282 2.626 2.315 3.66.17.174.55.914.802 1.403l.95 1.675v1.15c0 .546-.382 1.017-.9 1.12L5.5 23.11c-1.045.222-2.014.67-2.807 1.298a1.15 1.15 0 0 0-.427.805 1.14 1.14 0 0 0 .293.859C5.975 29.838 10.873 32 16 32s10.027-2.16 13.44-5.93a1.14 1.14 0 0 0-.135-1.664z"/></svg>
