<svg {{ with .class }}class="{{ . }}" {{ end }}{{ with .style }}style="{{ . | safeCSS }}" {{ end }}viewBox="{{ with .viewbox }}{{ . }}{{ else }}0 0 32 32{{ end }}" version="1.1" xmlns="http://www.w3.org/2000/svg" xmlns:xlink="http://www.w3.org/1999/xlink"><path d="M23.9 14.586c-.162-.357-.518-.587-.9-.586h-4V1a1 1 0 0 0-1-1h-4a1 1 0 0 0-1 1v13H9a1 1 0 0 0-.91.586c-.164.358-.1.776.158 1.072l7 8c.2.218.464.342.752.342s.562-.126.752-.342l7-8c.26-.294.32-.714.158-1.072zM27 22v6H5v-6H1v8a2 2 0 0 0 2 2h26a2 2 0 0 0 2-2v-8h-4z"/></svg>
