<svg {{ with .class }}class="{{ . }}" {{ end }}{{ with .style }}style="{{ . | safeCSS }}" {{ end }}viewBox="{{ with .viewbox }}{{ . }}{{ else }}0 0 32 32{{ end }}" version="1.1" xmlns="http://www.w3.org/2000/svg" xmlns:xlink="http://www.w3.org/1999/xlink"><path d="M31.183 26.148c-2.79-1.996-7.933-5.72-11-8.2-.25-.204-.612-.198-.858.015l-1.464 1.29c-1.098.99-2.62.99-3.72-.001l-1.463-1.288c-.244-.214-.606-.22-.857-.015-3.06 2.482-8.206 6.21-11 8.2-.156.11-.257.285-.276.475a.67.67 0 0 0 .175.521c.505.544 1.216.856 1.95.856h26.666c.734 0 1.444-.312 1.95-.855a.67.67 0 0 0-.1-.997h0zM1.056 24.335c2.89-2.08 6.893-5.006 9.548-7.133a.66.66 0 0 0 .25-.508c.004-.198-.08-.388-.232-.517L1.098 8.06C.9 7.89.62 7.854.387 7.963S0 8.308 0 8.568v15.226c0 .25.14.48.363.593.095.05.2.073.304.073a.67.67 0 0 0 .389-.125zM31.613 7.963c-.235-.1-.513-.072-.71.096l-9.524 8.118c-.15.13-.235.318-.23.517a.66.66 0 0 0 .25.508c2.656 2.127 6.657 5.053 9.547 7.133.115.083.252.125.39.125a.66.66 0 0 0 .305-.074c.222-.114.362-.343.362-.593V8.568c0-.26-.15-.496-.387-.605h0zM.668 5.947L15.03 18.25c.304.275.63.415.97.415s.663-.138.967-.412C19.234 16.2 26.94 9.666 31.332 5.947c.274-.23.315-.638.094-.92A2.65 2.65 0 0 0 29.333 4H2.667A2.65 2.65 0 0 0 .574 5.027c-.22.282-.18.69.094.92h0z"/></svg>
