<svg {{ with .class }}class="{{ . }}" {{ end }}{{ with .style }}style="{{ . | safeCSS }}" {{ end }}viewBox="{{ with .viewbox }}{{ . }}{{ else }}0 0 32 32{{ end }}" version="1.1" xmlns="http://www.w3.org/2000/svg" xmlns:xlink="http://www.w3.org/1999/xlink"><path d="M30.234 0H1.765C.8.001 0 .79 0 1.766v28.47C.001 31.2.79 32 1.766 32h15.328V19.625h-4.156V14.78h4.156v-3.564c0-4.134 2.523-6.384 6.21-6.384 1.766 0 3.284.13 3.726.2v4.32h-2.543c-2.006 0-2.394.953-2.394 2.352v3.085h4.797l-.625 4.844h-4.172V32h8.14C31.21 32 32 31.2 32 30.234V1.765C32 .8 31.21 0 30.234 0z"/></svg>
