<svg {{ with .class }}class="{{ . }}" {{ end }}{{ with .style }}style="{{ . | safeCSS }}" {{ end }}viewBox="{{ with .viewbox }}{{ . }}{{ else }}0 0 32 32{{ end }}" version="1.1" xmlns="http://www.w3.org/2000/svg" xmlns:xlink="http://www.w3.org/1999/xlink"><path d="M15.998 0C7.164 0 0 7.35 0 16.417 0 23.67 4.584 29.82 10.944 31.994c.8.15 1.092-.356 1.092-.79l-.022-2.792c-4.45.99-5.4-2.202-5.4-2.202-.726-1.896-1.776-2.4-1.776-2.4-1.454-1.018.108-.998.108-.998 1.606.117 2.45 1.693 2.45 1.693 1.428 2.507 3.746 1.784 4.658 1.363.144-1.06.558-1.784 1.016-2.195-3.552-.415-7.288-1.823-7.288-8.113 0-1.792.624-3.258 1.648-4.406-.166-.415-.714-2.085.156-4.344 0 0 1.344-.44 4.4 1.683 1.276-.364 2.644-.546 4.006-.552a14.98 14.98 0 0 1 4.006.554C23.062 6.37 24.404 6.8 24.404 6.8c.872 2.26.324 3.93.16 4.344 1.026 1.148 1.644 2.614 1.644 4.406 0 6.306-3.74 7.694-7.304 8.1.574.507 1.086 1.51 1.086 3.04l-.02 4.503c0 .44.288.95 1.1.788C27.42 29.817 32 23.667 32 16.417 32 7.35 24.836 0 15.998 0z"/></svg>
