<svg {{ with .class }}class="{{ . }}" {{ end }}{{ with .style }}style="{{ . | safeCSS }}" {{ end }}viewBox="{{ with .viewbox }}{{ . }}{{ else }}0 0 32 32{{ end }}" version="1.1" xmlns="http://www.w3.org/2000/svg" xmlns:xlink="http://www.w3.org/1999/xlink"><path d="M4 32h24c2.258 0 4-1.742 4-4V4c0-2.26-1.742-4-4-4H4C1.74 0 0 1.74 0 4v24c0 2.258 1.74 4 4 4zM22 5a1 1 0 0 1 1-1h4a1 1 0 0 1 1 1v4a1 1 0 0 1-1 1h-4a1 1 0 0 1-1-1V5zm-5.977 4.714c3.55 0 6.425 2.787 6.425 6.226s-2.876 6.226-6.425 6.226S9.6 19.377 9.6 15.94s2.878-6.226 6.423-6.226zM4 13l2.493.542c-.274.89-.413 1.815-.413 2.745 0 5.318 4.454 9.634 9.943 9.634s9.944-4.315 9.944-9.634c0-.955-.145-1.875-.412-2.745L28 13v14c0 .7-.3 1-1 1H5c-.7 0-1-.3-1-1V13z"/></svg>
