<svg {{ with .class }}class="{{ . }}" {{ end }}{{ with .style }}style="{{ . | safeCSS }}" {{ end }}viewBox="{{ with .viewbox }}{{ . }}{{ else }}0 0 32 32{{ end }}" version="1.1" xmlns="http://www.w3.org/2000/svg" xmlns:xlink="http://www.w3.org/1999/xlink"><path d="M29.692 0H2.308A2.31 2.31 0 0 0 0 2.308v27.384A2.31 2.31 0 0 0 2.308 32h27.384A2.31 2.31 0 0 0 32 29.692V2.308A2.31 2.31 0 0 0 29.692 0zM11.35 24.188H7.454V12.464h3.897v11.723zM9.402 10.863h-.025c-1.308 0-2.153-.9-2.153-2.025 0-1.15.872-2.026 2.205-2.026s2.153.875 2.18 2.026c0 1.125-.846 2.025-2.205 2.025zm16 13.324h-3.896v-6.272c0-1.576-.564-2.65-1.974-2.65-1.076 0-1.717.725-2 1.425-.103.25-.128.6-.128.95v6.547h-3.896V12.464h3.896v1.66c.518-.8 1.444-1.935 3.512-1.935 2.564 0 4.486 1.676 4.486 5.276v6.722z"/></svg>
