<svg {{ with .class }}class="{{ . }}" {{ end }}{{ with .style }}style="{{ . | safeCSS }}" {{ end }}viewBox="{{ with .viewbox }}{{ . }}{{ else }}0 0 32 32{{ end }}" version="1.1" xmlns="http://www.w3.org/2000/svg" xmlns:xlink="http://www.w3.org/1999/xlink"><path d="M30.298 0H1.702C.762 0 0 .762 0 1.702v28.596C0 31.238.762 32 1.702 32h28.596c.94 0 1.702-.762 1.702-1.702V1.702C32 .762 31.238 0 30.298 0zm-12.25 21.907c-1.646 0-3.193-.89-3.722-1.9l-1.07 4.187c-.66 2.394-2.6 4.79-2.75 4.986-.106.136-.338.094-.362-.087-.042-.305-.537-3.326.045-5.79l1.96-8.3s-.486-.973-.486-2.41c0-2.257 1.31-3.943 2.938-3.943 1.386 0 2.054 1.04 2.054 2.287 0 1.393-.887 3.475-1.344 5.405-.382 1.617.8 2.934 2.403 2.934 2.886 0 4.83-3.707 4.83-8.1 0-3.338-2.247-5.838-6.337-5.838-4.62 0-7.5 3.446-7.5 7.296 0 1.327.392 2.264 1.006 2.988.28.333.32.467.22.85l-.3 1.222c-.102.386-.414.525-.763.382-2.128-.87-3.12-3.2-3.12-5.82 0-4.327 3.65-9.517 10.888-9.517 5.817 0 9.644 4.208 9.644 8.727-.001 5.976-3.324 10.44-8.22 10.44z"/></svg>
