<svg {{ with .class }}class="{{ . }}" {{ end }}{{ with .style }}style="{{ . | safeCSS }}" {{ end }}viewBox="{{ with .viewbox }}{{ . }}{{ else }}0 0 32 32{{ end }}" version="1.1" xmlns="http://www.w3.org/2000/svg" xmlns:xlink="http://www.w3.org/1999/xlink"><path d="M24.75 23.5a2.25 2.25 0 1 1 0 4.5 2.25 2.25 0 1 1 0-4.5zm-11.498 0a2.25 2.25 0 1 1 0 4.5 2.25 2.25 0 1 1 0-4.5zM29 10l-4 9H13L6 4H0v3h4l7 15h16l5-12h-3zm-6.25 4.5h-2.5V17h2.5v-2.5zm-5 0h-2.5V17h2.5v-2.5zm7.5-4.5h-2.5v2.5h2.5V10zm-5 0h-2.5v2.5h2.5V10zm-5 0h-2.5v2.5h2.5V10z"/></svg>
