<svg {{ with .class }}class="{{ . }}" {{ end }}{{ with .style }}style="{{ . | safeCSS }}" {{ end }}viewBox="{{ with .viewbox }}{{ . }}{{ else }}0 0 32 32{{ end }}" version="1.1" xmlns="http://www.w3.org/2000/svg" xmlns:xlink="http://www.w3.org/1999/xlink"><path d="M30.298 0H1.702A1.7 1.7 0 0 0 0 1.702v28.596A1.7 1.7 0 0 0 1.702 32h28.596A1.7 1.7 0 0 0 32 30.298V1.702A1.7 1.7 0 0 0 30.298 0z"/><path d="M22.908 25.74v-6.347h2.107v8.454H6v-8.454h2.107v6.347h14.8zM10.213 21.5h10.56v2.107h-10.56zm.22-2.7l.438-2.08 10.342 2.16-.438 2.08-10.342-2.162zm1.368-4.924l9.576 4.46.876-1.915-9.576-4.487-.876 1.942zm2.654-4.706l1.34-1.614 8.126 6.758-1.34 1.614-8.126-6.758zm5.253-5.006L18 5.412l6.293 8.482L26 12.635l-6.293-8.48z"/></svg>
