<svg {{ with .class }}class="{{ . }}" {{ end }}{{ with .style }}style="{{ . | safeCSS }}" {{ end }}viewBox="{{ with .viewbox }}{{ . }}{{ else }}0 0 32 32{{ end }}" version="1.1" xmlns="http://www.w3.org/2000/svg" xmlns:xlink="http://www.w3.org/1999/xlink"><path d="M32 6.078c-1.2.522-2.458.868-3.78 1.036 1.36-.812 2.398-2.088 2.886-3.626a13.11 13.11 0 0 1-4.16 1.588C25.742 3.794 24.026 3 22.154 3a6.56 6.56 0 0 0-6.556 6.562c0 .52.044 1.02.152 1.496-5.454-.266-10.28-2.88-13.522-6.862-.566.982-.898 2.106-.898 3.316a6.57 6.57 0 0 0 2.914 5.452 6.48 6.48 0 0 1-2.964-.808v.072c0 3.188 2.274 5.836 5.256 6.446-.534.146-1.116.216-1.72.216-.42 0-.844-.024-1.242-.112.85 2.598 3.262 4.508 6.13 4.57a13.18 13.18 0 0 1-8.134 2.798c-.538 0-1.054-.024-1.57-.1C2.906 27.93 6.35 29 10.064 29c12.072 0 18.672-10 18.672-18.668 0-.3-.01-.57-.024-.848C30.014 8.56 31.108 7.406 32 6.078z"/></svg>
