<svg {{ with .class }}class="{{ . }}" {{ end }}{{ with .style }}style="{{ . | safeCSS }}" {{ end }}viewBox="{{ with .viewbox }}{{ . }}{{ else }}0 0 32 32{{ end }}" version="1.1" xmlns="http://www.w3.org/2000/svg" xmlns:xlink="http://www.w3.org/1999/xlink"><path d="M30.64 7.12c-.868-1.544-1.8-1.828-3.728-1.936C24.996 5.054 20.178 5 16.004 5c-4.182 0-9.002.054-10.916.182-1.914.1-2.858.392-3.734 1.938C.46 8.662 0 11.318 0 15.994V16c0 4.656.46 7.332 1.354 8.858.876 1.544 1.818 1.824 3.732 1.954 1.916.112 6.736.178 10.918.178 4.174 0 8.992-.066 10.9-.176 1.918-.13 2.86-.4 3.728-1.954.902-1.526 1.358-4.202 1.358-8.858v-.016c0-4.678-.456-7.334-1.36-8.876zM12 22V10l10 6-10 6z"/></svg>
